<svg xmlns="http://www.w3.org/2000/svg" viewBox="0 0 905.62 1035.1"><defs><style>.cls-1{fill:#f0f0f0;}.cls-2{fill:#3b3744;}.cls-3{fill:#fff;}.cls-11,.cls-4{fill:none;stroke-linecap:round;stroke-linejoin:round;stroke-width:3.19px;}.cls-4{stroke:#1b3c87;}.cls-5{fill:#b2c3fb;}.cls-6{fill:#d8dfff;}.cls-7{fill:#46dbc9;}.cls-8{fill:#fb5d64;}.cls-9{fill:#1b3c87;}.cls-10{fill:#ecc953;}.cls-11{stroke:#d8dfff;}</style></defs><title>drawkit-grape-pack-illustration-18</title><g id="Layer_2" data-name="Layer 2"><g id="vector"><path class="cls-1" d="M731.93,86.66c82.52,51.43,153.6,134.4,169.83,227,16.45,92.57-21.94,195-72.69,296.68C778.33,712.25,715.25,814,613.08,883.9c-102.17,70.17-243.42,108.8-351.54,65.37C153.66,906.07,78.92,780.59,38,659.91c-40.68-120.69-47.31-236.57-26.51-347C32.06,202.77,79.83,98.32,159.37,46.43S350.23-4.77,452.85,5.52C555.25,15.58,649.42,35.46,731.93,86.66Z"/><path class="cls-2" d="M780.06,1035.1c-6.81-11.89-97.8-209-97.8-224.52,0-5.3,28.85-167.2,41.62-169.08s43.43-14.75,53.26-18.29C778.28,636.32,846,1035.1,846,1035.1Z"/><path class="cls-2" d="M569.42,1035.1c0-25.84.92-408.35.92-408.35s164.33,6.26,178.18,6.93c0,79.63-114.67,339.54-114.67,401.42Z"/><path class="cls-3" d="M662.69,300.7c-4.91-7.73-27.74-46-29.76-52.62s-16-122.92-16-122.92l-39.45,2s-4.29,124.36,0,133.79,35.73,70.31,35.73,70.31l24.3,15.45Z"/><path class="cls-4" d="M570.76,236.71c.26,10.06.78,17.24,1.69,19.24,4.29,9.43,35.73,70.31,35.73,70.31l24.3,15.45,25.21-46c-4.91-7.73-27.74-46-29.76-52.62s-16-122.92-16-122.92l-39.45,2s-1.61,46.74-1.87,85.08"/><path class="cls-5" d="M846.5,15.56h29.41a11.36,11.36,0,0,1,11.36,11.36V95.27a11.36,11.36,0,0,1-11.36,11.36H846.5a0,0,0,0,1,0,0V15.56a0,0,0,0,1,0,0Z" transform="translate(-1.84 84.32) rotate(-5.56)"/><polygon class="cls-6" points="296.94 70.86 222.86 123.82 305.77 161.5 305.77 161.5 851.01 108.39 842.18 17.75 296.94 70.86"/><path class="cls-7" d="M697.25,290.66c104.7,0,80.68,290.32,79.89,332.55-16.36,19.79-186.08,15-207.72,1.58C564,578.61,583.92,290.66,697.25,290.66Z"/><path class="cls-4" d="M767.29,399.28c13.59,86.37,5.31,194.42,4.85,218.93-9.28,11.22-67.86,14.55-120.8,12.88"/><path class="cls-4" d="M567.55,533.5C578,432.72,611.26,285.66,692.25,285.66c28.47,0,47.42,21.47,59.91,53.58"/><path class="cls-4" d="M610.22,628.65c-22.38-2.06-39.79-5.12-45.8-8.86-.78-6.62-1-18.21-.57-33.21"/><path class="cls-4" d="M711.48,756.25c-15.61,45.14-32.07,86.46-36.94,100.87-9.38,27.75-45.69,154.22-45.69,173"/><path class="cls-4" d="M743.52,627.7c0,18.64-6.43,46.77-15.41,77.14"/><path class="cls-4" d="M564.42,947.58v82.52"/><path class="cls-4" d="M564.42,619.79V885.71"/><path class="cls-4" d="M772.14,618.21c0,23.94,60,375.27,68.82,411.89"/><path class="cls-4" d="M737,951C714.76,901.74,690.41,845.24,685,828.9"/><path class="cls-4" d="M775.06,1030.1c-3.1-4.72-10.14-18.91-19-37.78"/><circle class="cls-5" cx="135.42" cy="423.27" r="17.54"/><circle class="cls-8" cx="473.1" cy="452.62" r="16.56"/><circle class="cls-3" cx="323.4" cy="824.15" r="16.56"/><rect class="cls-3" x="164.57" y="157.49" width="116.58" height="248.8" transform="translate(-129.83 213.04) rotate(-40.62)"/><path class="cls-3" d="M733.52,254.68c-1.38,10.2-4,46.76-2.91,59.46-5.69,5.47-32.84,6.57-44-3.28,2.19-10.51,7.23-19.71,4.38-41.6S733.52,254.68,733.52,254.68Z"/><path class="cls-4" d="M684.94,297.81c2.09-7.78,4.07-16.93,2-32.55-2.84-21.9,42.54-14.58,42.54-14.58-1.38,10.2-4,46.76-2.91,59.46-4.42,4.25-21.81,5.86-34.58,1.74"/><ellipse class="cls-3" cx="698.72" cy="207.24" rx="50.19" ry="65.84"/><path class="cls-4" d="M645.7,217.42a85.33,85.33,0,0,1-1.17-14.18c0-36.36,22.47-65.84,50.19-65.84s50.19,29.48,50.19,65.84A80.71,80.71,0,0,1,736.37,240"/><path class="cls-4" d="M711.34,265.39a39.58,39.58,0,0,1-16.62,3.69c-18.24,0-34.22-12.77-43-31.87"/><ellipse class="cls-9" cx="672.39" cy="207.58" rx="2.15" ry="5.8"/><path class="cls-4" d="M663,209c0,4.69-4.22,12.59-8.31,16.88"/><path class="cls-4" d="M667.49,248.5c2.19,0,9.92-2.77,15.45-10.84"/><path class="cls-10" d="M721.59,224.38c2.17,2.94,4.36,24.18,9,25.57s24.32-36,24.32-51c0-27.12-16-87.88-39.52-87.88-8.53,0-9.3,13.18-9.3,18.29-2.79-7-15.66-22-31.93-22-27.59,0-27.15,26-22.32,46.5-4.8-2.64-5-3.41-10.85-3.41-5.26,0-8.06,6.89-8.06,14.1,0,17.36,9.33,23.56,16.6,26.51s28.19,4.34,42,4C693.22,199,705.93,224.69,721.59,224.38Z"/><path class="cls-4" d="M656.76,188.63a222.85,222.85,0,0,0,29.76,1.46c1.7,3.87,14.41,29.6,30.07,29.29,2.17,2.94,4.36,24.18,9,25.57,1.21.37,3.46-1.92,6.11-5.77"/><path class="cls-4" d="M650.79,109c-8.51,9-7.27,25.74-3.95,39.85-4.8-2.64-5-3.41-10.85-3.41-5.26,0-8.06,6.89-8.06,14.1,0,12.3,4.69,19,10,22.91"/><path class="cls-4" d="M723.75,112.82c-4.1-4.23-8.57-6.74-13.36-6.74-8.53,0-9.3,13.17-9.3,18.29-2.79-7-15.66-22-31.93-22-.73,0-1.44,0-2.13,0"/><path class="cls-4" d="M742.91,218.29c4-9.09,7-18.43,7-24.33,0-16.48-5.89-45.36-15.8-65.5"/><circle class="cls-3" cx="713.75" cy="215.69" r="15.83"/><path class="cls-4" d="M701.84,198a15.84,15.84,0,1,1,7.91,29.55"/><path class="cls-3" d="M668,337.89c-11-5-90.13-33.71-97-40.6S512.77,191.68,511.12,187c1.47-1.62,4.16-9.3,4-18s-5.75-11.09-6.18-38.27c-.14-9.31-13.8.51-13.63,19.81-16.2-1.24-36.76-40.77-49.26-23.36,43,86.82,90.41,220.53,94.4,224.52s106.79,55.89,109.09,54.47S672.73,343.57,668,337.89Z"/><path class="cls-7" d="M766.74,418.88c8.09-31.67-40.53-82.63-93.09-87.62-8.66,4.68-34.2,63.07-31.19,81.74C662.26,434.12,753.92,469.09,766.74,418.88Z"/><path class="cls-4" d="M665.21,329.68c-10.54,13.74-30.43,61.73-27.75,78.32,3.68,3.93,9.86,8.34,17.55,12.59"/><path class="cls-4" d="M668.65,326.26a12.73,12.73,0,0,0-3.44,3.42"/><path class="cls-4" d="M693.83,435.83c29.76,7.53,60.84,5.75,67.91-21.95,6.39-25-22.56-62-60.88-79"/><path class="cls-4" d="M448,134.52q-3.42-6.28-7-12.36c-3.3-4.73,11.57-13.82,35.25,17.3"/><path class="cls-4" d="M555.92,358.49c-10.15-5.57-17.9-10-20.48-11.81-8.91-6.32-35.31-109.59-78.91-196"/><path class="cls-4" d="M637.38,401.15c-3-1.15-29.79-15-55.27-28.55"/><path class="cls-4" d="M520.93,211.33c-8.15-15.67-14.26-27.77-14.81-29.33,1.47-1.62,4.16-9.3,4-18s-5.75-11.09-6.18-38.27c-.14-9.31-13.8.51-13.63,19.81"/><path class="cls-4" d="M663,332.89c-11-5-90.13-33.71-97-40.6-2.84-2.84-13.22-21.28-24.56-42.3"/><polygon class="cls-11" points="446.04 524.06 230 579.61 386.12 738.94 446.04 524.06"/></g></g></svg>