<svg xmlns="http://www.w3.org/2000/svg" viewBox="0 0 802.6 931.32"><defs><style>.cls-1{fill:#f0f0f0;}.cls-2{fill:#fff;}.cls-3,.cls-4{fill:none;stroke-linecap:round;stroke-linejoin:round;}.cls-3{stroke:#fb5d64;stroke-width:4px;}.cls-4{stroke:#1b3c87;stroke-width:3.19px;}.cls-5{fill:#b2c3fb;}.cls-6,.cls-8{fill:#d8dfff;}.cls-7{fill:#eaf0ff;}.cls-8{opacity:0.71;}</style></defs><title>drawkit-grape-pack-illustration-17</title><g id="Layer_2" data-name="Layer 2"><g id="vector"><path class="cls-1" d="M560.7,215c39.44,82.92,62.37,135.57,113.18,214.26C724.51,507.78,803,612.52,789.08,689.93c-13.76,77.23-119.79,127.31-226.91,160.33-107.31,33-215.54,49.16-297.36,11.19-81.63-38-136.84-130.06-155.55-216.82s-1.1-168.22,13.21-250.58,25.13-165.46,72.45-246.91C242.07,65.51,325.9-14.47,395.6,2.23,465.31,18.74,521.26,132.1,560.7,215Z"/><rect class="cls-2" x="206.1" y="147.43" width="172.5" height="172.5"/><polygon class="cls-3" points="315.6 299.93 222.6 451.93 524.6 451.93 315.6 299.93"/><path class="cls-2" d="M455.6,581.93c-9-1-58,3-119,74l-.78.14c-6.17-6.61-18.15-14.42-37.72-23.64,6.64-9,11.5-29.73,17-41,20-41,45.26-124.16,49.5-148.5,13.5-77.5-25.92-88.65-41-55-5.61,12.51-29.37,57.13-53.89,106.92-21.9-7.16-36.73.69-42.11,6.08-2,2-10.71,14.78-22,32h0c-11-6-21-9-36,0-14.61,8.76-57.28,47.23-82,124-12,37.36,2,78.34-12.26,139.17l.18-.35-.17.68c0-.21,0-.33,0-.33C67.09,831.33,46.1,883.43,11.6,924.93a39.2,39.2,0,0,0,14.06,1.26c33.06,4.91,137.27,15.91,219.44-24.76a12.23,12.23,0,0,0,0-3.37l.54-.13c25-14,85-141,127-167,26-20,49-85,92-132C469.87,593.17,461.56,582.59,455.6,581.93Z"/><path class="cls-4" d="M391.9,589.12c-18.7,11-41,28.58-65.3,56.81"/><path class="cls-4" d="M297.53,787.91c22.75-29.23,47.24-55.94,65.07-67,26-20,49-85,92-132,5.27-5.76-3-16.34-9-17-3-.33-10.31-.11-21,2.88"/><path class="cls-4" d="M235.6,887.93c2.15-10,13.69-31,29.55-55"/><path class="cls-4" d="M279.8,458.28c16-38.47,29.25-70.22,33.8-80.35,15.08-33.65,50-24,41,55"/><path class="cls-4" d="M198.6,646.93c8.9-16.81,33.94-75.7,58.56-134.43"/><path class="cls-4" d="M266.6,664.93c4-7,30-58,39-83"/><path class="cls-4" d="M157.56,581.93c25.19-39.82,56-87,60-91,6-6,23.7-15.07,49.85-3"/><path class="cls-4" d="M128.6,628.93c2.82-4.86,6.79-11.43,11.51-19.09"/><path class="cls-4" d="M72.32,724.38c.37-29.77-2.18-54.3,5.28-77.45,24.72-76.77,67.39-115.24,82-124,15-9,24.93-6,36,0"/><path class="cls-4" d="M1.6,914.93C33.1,871.8,50.67,835.5,60.41,804.2"/><circle class="cls-5" cx="524.6" cy="336.93" r="72"/><polygon class="cls-6" points="615.6 70.93 517.6 163.93 703.6 269.93 615.6 70.93"/><rect class="cls-7" x="583.6" y="381.93" width="134" height="356" transform="translate(367.13 -250.28) rotate(30)"/><circle class="cls-8" cx="688.1" cy="746.43" r="114.5"/></g></g></svg>