<svg xmlns="http://www.w3.org/2000/svg" viewBox="0 0 654.27 816.52"><defs><style>.cls-1{fill:#f0f0f0;}.cls-2{fill:#fff;}.cls-3{fill:#eaefff;}.cls-4,.cls-6{fill:none;stroke-linecap:round;stroke-linejoin:round;stroke-width:4.78px;}.cls-4{stroke:#b0c3fa;}.cls-5{fill:#ecc953;}.cls-6{stroke:#1b3c87;}.cls-7{fill:#d6dfff;}.cls-8{fill:#b0c3fa;}.cls-9{fill:#fb5d64;}</style></defs><title>drawkit-grape-pack-illustration-14</title><g id="Layer_2" data-name="Layer 2"><g id="vector"><path class="cls-1" d="M562.72,172.88c52.5,33.7,76.37,111.93,82.64,187.45s-4.91,148.34-32,227.58S543.42,753,476,782.31c-67.57,29.46-159.68,2.37-228.94-42.34C178,695.27,131.6,632.79,88.25,565.05S4.43,424.17.37,341.87C-3.86,259.58,28.31,168,92.15,136.3c64-31.66,159.68-3.22,248.24,5.42S510.23,139.18,562.72,172.88Z"/><path class="cls-2" d="M400,816.52c28.14-70.85,83-107.18,86-194.17.1-6.44-106-74.87-155.5-73.72S216.21,816.52,216.21,816.52Z"/><rect class="cls-3" x="183.97" y="51.61" width="317.49" height="565.74"/><rect class="cls-2" x="215.62" y="299.31" width="254.21" height="98.43"/><line class="cls-4" x1="319.12" y1="327.68" x2="435.31" y2="327.68"/><line class="cls-4" x1="319.12" y1="358.14" x2="366.32" y2="358.14"/><circle class="cls-5" cx="266.25" cy="348.52" r="26.85"/><path class="cls-6" d="M439.2,733.55c21.13-32.78,40.07-66.08,41.8-116.2"/><path class="cls-6" d="M395,811.52a287.5,287.5,0,0,1,21.47-42.41"/><rect class="cls-2" x="215.62" y="154.8" width="254.21" height="98.43"/><rect class="cls-7" x="183.97" y="51.61" width="317.49" height="58.26"/><rect class="cls-7" x="183.97" y="559.08" width="317.49" height="58.26"/><line class="cls-6" x1="319.12" y1="80.74" x2="366.32" y2="80.74"/><circle class="cls-8" cx="342.72" cy="588.21" r="13.99"/><path class="cls-2" d="M137.47,816.52c15-57,18-275,0-325,26-19,133-100,149-113,15,10,8,93-41,129v25c26,0,65,87,43,179-12.71,40.3,26.65,105,26.65,105Z"/><path class="cls-6" d="M265.21,548.51c19.08,31.29,33.7,93.42,18.26,158"/><path class="cls-6" d="M266.25,385.42c7.14-5.51,12.5-9.69,15.22-11.9,15,10,8,93-41,129v18.19"/><path class="cls-6" d="M147.5,475.38c22.55-16.82,59.33-44.6,89-67.16"/><path class="cls-6" d="M132.47,811.52c11.82-44.91,16.18-189.74,8.7-273.63"/><line class="cls-4" x1="413.3" y1="183.17" x2="435.31" y2="183.17"/><line class="cls-4" x1="319.12" y1="183.17" x2="391.29" y2="183.17"/><line class="cls-4" x1="319.12" y1="213.63" x2="366.32" y2="213.63"/><circle class="cls-9" cx="266.25" cy="204.01" r="26.85"/><path class="cls-2" d="M534.72,471.19c73.83,49.34-45.7,143-77.62,168.87C448.84,634.14,443.11,553.79,534.72,471.19Z"/><path class="cls-6" d="M478.17,613.46c-10.59,9.17-19.95,16.63-26.07,21.6-11.49-6.23-7.53-51.65,25-102.27"/><path class="cls-6" d="M529.72,466.19c40.41,27,22.89,67.28-6.48,102.46"/><circle class="cls-4" cx="566.64" cy="109.81" r="13.24"/><path class="cls-4" d="M524.55,33.41c0-.41,0-.83,0-1.25a29.77,29.77,0,1,1,13.12,24.68"/><path class="cls-4" d="M624.81,73.38a21,21,0,1,1,23-7.72"/><path class="cls-2" d="M508.47,426.52c-78,47-87,149-77,155,28-11,132-126,132-179,0-12-34.78-34.7-42.77-37.95-4.48-1.75.29-9.12-15.66,5.63C505.14,384.85,504,412.2,508.47,426.52Z"/><path class="cls-6" d="M515.7,359.57c8,3.25,42.77,25.95,42.77,37.95,0,13-6.29,29.82-16.19,47.88"/><path class="cls-6" d="M503.18,502.5c-29.55,36.87-62.68,68.51-76.71,74-10-6-1-108,77-155"/><path class="cls-2" d="M506.47,299.52c16-12,72-66,78-74,13-4,36,59-78,151"/><path class="cls-6" d="M546.82,329.14a392,392,0,0,1-45.35,42.38"/><path class="cls-6" d="M501.47,294.52c16-12,72-66,78-74,9.2-2.83,23.42,27.93-9.53,78.79"/></g></g></svg>